<svg xmlns="http://www.w3.org/2000/svg" width="24px" height="24px" viewBox="0 0 24 24">
<path fill="#999999" d="M9,20.5C9,20.776,8.776,21,8.5,21h-1C7.224,21,7,20.776,7,20.5v-1C7,19.224,7.224,19,7.5,19h1
C8.776,19,9,19.224,9,19.5V20.5z"/>
<path fill="#999999" d="M17,20.5c0,0.276-0.224,0.5-0.5,0.5h-1c-0.276,0-0.5-0.224-0.5-0.5v-1c0-0.276,0.224-0.5,0.5-0.5h1
c0.276,0,0.5,0.224,0.5,0.5V20.5z"/>
<path fill="#999999" d="M13,20.5c0,0.276-0.224,0.5-0.5,0.5h-1c-0.276,0-0.5-0.224-0.5-0.5v-1c0-0.276,0.224-0.5,0.5-0.5h1
c0.276,0,0.5,0.224,0.5,0.5V20.5z"/>
<path fill="#999999" d="M9,16.5C9,16.776,8.776,17,8.5,17h-1C7.224,17,7,16.776,7,16.5v-1C7,15.224,7.224,15,7.5,15h1
C8.776,15,9,15.224,9,15.5V16.5z"/>
<path fill="#999999" d="M17,16.5c0,0.276-0.224,0.5-0.5,0.5h-1c-0.276,0-0.5-0.224-0.5-0.5v-1c0-0.276,0.224-0.5,0.5-0.5h1
c0.276,0,0.5,0.224,0.5,0.5V16.5z"/>
<path fill="#999999" d="M13,16.5c0,0.276-0.224,0.5-0.5,0.5h-1c-0.276,0-0.5-0.224-0.5-0.5v-1c0-0.276,0.224-0.5,0.5-0.5h1
c0.276,0,0.5,0.224,0.5,0.5V16.5z"/>
<path fill="#999999" d="M9,12.5C9,12.776,8.776,13,8.5,13h-1C7.224,13,7,12.776,7,12.5v-1C7,11.224,7.224,11,7.5,11h1
C8.776,11,9,11.224,9,11.5V12.5z"/>
<path fill="#999999" d="M17,12.5c0,0.276-0.224,0.5-0.5,0.5h-1c-0.276,0-0.5-0.224-0.5-0.5v-1c0-0.276,0.224-0.5,0.5-0.5h1
c0.276,0,0.5,0.224,0.5,0.5V12.5z"/>
<path fill="#999999" d="M13,12.5c0,0.276-0.224,0.5-0.5,0.5h-1c-0.276,0-0.5-0.224-0.5-0.5v-1c0-0.276,0.224-0.5,0.5-0.5h1
c0.276,0,0.5,0.224,0.5,0.5V12.5z"/>
<path fill="#999999" d="M19.5,2h-2.75V0.75C16.75,0.336,16.414,0,16,0s-0.75,0.336-0.75,0.75V2h-6.5V0.75C8.75,0.336,8.414,0,8,0
S7.25,0.336,7.25,0.75V2H4.5c-1.103,0-2,0.892-2,1.988v18.023C2.5,23.108,3.397,24,4.5,24h15c1.103,0,2-0.892,2-1.988V3.988
C21.5,2.892,20.603,2,19.5,2z M4.5,3.5h2.75v1.25C7.25,5.164,7.586,5.5,8,5.5s0.75-0.336,0.75-0.75V3.5h6.5v1.25
c0,0.414,0.336,0.75,0.75,0.75s0.75-0.336,0.75-0.75V3.5h2.75c0.276,0,0.5,0.218,0.5,0.488V7.25H4V3.988C4,3.718,4.224,3.5,4.5,3.5z
M19.5,22.5h-15c-0.276,0-0.5-0.218-0.5-0.488V8.75h16v13.262C20,22.282,19.776,22.5,19.5,22.5z"/>
</svg>
