<svg xmlns="http://www.w3.org/2000/svg" width="24px" height="24px" viewBox="0 0 24 24">
<path fill="#067881" d="M21.7,18.7c-0.4-0.6-1-1.3-1.6-2c-0.5-0.5-2.2-2.1-3.3-2.1c-0.3,0-0.6,0.1-0.7,0.3l-1.4,1.4
c0,0-0.1,0.1-0.2,0.1c-0.8,0-2.5-0.9-4.2-2.6C8,11.5,7.4,9.6,7.7,9.3l1.4-1.4c0.1-0.1,0.3-0.3,0.3-0.7c0-1.1-1.6-2.8-2.1-3.3
C6.8,3.4,5.1,1.8,4.1,1.8C3.7,1.8,3.5,2,3.4,2.1L0.5,5c-0.9,0.9-0.5,2.5,0.9,5c1.3,2.1,3.3,4.6,5.7,7c4.2,4.2,8.5,7.1,10.7,7.1
c0.5,0,1-0.2,1.3-0.5l2.9-2.9C22.5,20,21.9,19,21.7,18.7z"/>
<path fill="#067881" d="M12.2,0c-0.3,0-0.6,0.2-0.6,0.6c0,0.4,0.2,0.6,0.6,0.6C18,1.3,22.7,6,22.7,11.8c0,0.3,0.2,0.6,0.6,0.6
s0.6-0.2,0.6-0.6C23.9,5.3,18.7,0,12.2,0z"/>
<path fill="#067881" d="M11.7,7.6c0,0.3,0.2,0.6,0.6,0.6c1.9,0,3.4,1.5,3.4,3.4c0,0.3,0.2,0.6,0.6,0.6c0.4,0,0.6-0.2,0.6-0.6
C17,9.1,15,7,12.4,7C11.9,7,11.7,7.3,11.7,7.6z"/>
<path fill="#067881" d="M19,11.8c0,0.3,0.2,0.6,0.6,0.6s0.6-0.2,0.6-0.6c0-4.4-3.6-8-8-8c-0.3,0-0.6,0.2-0.6,0.6
c0,0.4,0.2,0.6,0.6,0.6C16,5,19,8,19,11.8z"/>
</svg>
