<svg xmlns="http://www.w3.org/2000/svg" width="24px" height="24px" viewBox="0 0 24 24">
<path style="fill:#009cf2;" d="M21.2,4h-2.5V1.8C18.8,0.8,18,0,17,0H7C6,0,5.2,0.8,5.2,1.8V4H2.8C1.2,4,0,5.2,0,6.8v8.5
C0,16.8,1.2,18,2.8,18h2.5v4.2C5.2,23.2,6,24,7,24h10c1,0,1.8-0.8,1.8-1.8V18h2.5c1.5,0,2.8-1.2,2.8-2.8V6.8C24,5.2,22.8,4,21.2,4z
 M6.8,1.8c0-0.1,0.1-0.2,0.2-0.2h10c0.1,0,0.2,0.1,0.2,0.2V4H6.8V1.8z M17,22.5H7c-0.1,0-0.2-0.1-0.2-0.2v-9.5h10.5v9.5
C17.2,22.4,17.1,22.5,17,22.5z M22.5,15.2c0,0.7-0.6,1.2-1.2,1.2h-2.5v-3.8h0.8c0.4,0,0.8-0.3,0.8-0.8S20.1,11,19.6,11h-15
c-0.4,0-0.8,0.3-0.8,0.8s0.3,0.8,0.8,0.8h0.8v3.8H2.8c-0.7,0-1.2-0.6-1.2-1.2V6.8c0-0.7,0.6-1.2,1.2-1.2h18.5c0.7,0,1.2,0.6,1.2,1.2
V15.2z"/>
<rect x="8" y="19.4" style="fill:#009cf2;" width="8" height="1"/>
<rect x="8" y="17.4" style="fill:#009cf2;" width="8" height="1"/>
<rect x="8" y="15.4" style="fill:#009cf2;" width="8" height="1"/>
</svg>
