<svg xmlns="http://www.w3.org/2000/svg" width="24px" height="24px" viewBox="0 0 24 24">
<path style="fill:#067881;" d="M24,19v-1.2V6.2V4.9c-2.7,2.6-5.8,5.4-8.3,7.2C18.7,14.4,22.7,17.8,24,19z"/>
<path style="fill:#067881;" d="M0.6,3.7c4.3,4.1,7.3,6.6,9.1,7.9c0,0,0,0,0,0c1.2,0.8,1.9,1.2,2.3,1.2c0.9,0,4.8-2.8,11.4-9.1
c0.1-0.1,0.3-0.2,0.4-0.2c-0.2-0.3-0.5-0.5-0.8-0.5H1c-0.3,0-0.6,0.2-0.8,0.4C0.3,3.6,0.5,3.6,0.6,3.7z"/>
<path style="fill:#067881;" d="M0,4.9v1.3v11.6V19c1.3-1.1,5.2-4.6,8.3-6.8C6.2,10.6,3.5,8.2,0,4.9z"/>
<path style="fill:#067881;" d="M23.6,20.3c-0.1,0-5.4-4.7-9-7.4c-1.1,0.7-2,1.2-2.6,1.2c-0.5,0-1.4-0.4-2.6-1.2
c-3.6,2.7-8.9,7.4-9,7.4c-0.1,0.1-0.1,0.1-0.2,0.1c0.2,0.3,0.5,0.4,0.8,0.4h22c0.3,0,0.6-0.2,0.8-0.4C23.7,20.4,23.6,20.4,23.6,20.3
z"/>
</svg>
