<svg xmlns="http://www.w3.org/2000/svg" width="24px" height="24px" viewBox="0 0 24 24">
<path fill="#009cf2" d="M17.78,7.72l-7.5-7.5C10.14,0.079,9.949,0,9.75,0H2.583C1.159,0,0,1.177,0,2.625v18.75
C0,22.822,1.159,24,2.583,24h12.833C16.841,24,18,22.822,18,21.374V8.25C18,8.051,17.921,7.86,17.78,7.72z M16.5,8.561V9.5H9.584
C8.986,9.5,8.5,8.995,8.5,8.374V1.5h0.939L16.5,8.561z M15.417,22.5H2.583c-0.598,0-1.083-0.505-1.083-1.126V2.625
C1.5,2.004,1.986,1.5,2.583,1.5H7v6.874C7,9.822,8.159,11,9.584,11H16.5v10.374C16.5,21.995,16.014,22.5,15.417,22.5z"/>
<path fill="#009cf2" d="M23.78,7.72l-7.5-7.5C16.14,0.079,15.949,0,15.75,0h-4c0.199,0,0.39,0.079,0.53,0.22l1.28,1.28h1.879
L22.5,8.561v12.813c0,0.621-0.486,1.126-1.083,1.126H19.74c-0.416,0.884-1.297,1.5-2.323,1.5h4C22.841,24,24,22.822,24,21.374V8.25
C24,8.051,23.921,7.86,23.78,7.72z"/>
</svg>
