<svg xmlns="http://www.w3.org/2000/svg" width="40px" height="40px" viewBox="0 0 40 40">
<path style="fill:#EE8208;" d="M20,10c-2.6,0-4.7,2.1-4.7,4.7c0,2.6,2.1,4.7,4.7,4.7c2.6,0,4.7-2.1,4.7-4.7C24.7,12.1,22.6,10,20,10
z M20,17c-1.3,0-2.3-1.1-2.3-2.3s1.1-2.3,2.3-2.3s2.3,1.1,2.3,2.3S21.3,17,20,17z"/>
<path style="fill:#EE8208;" d="M25.3,22.5C24.5,22.9,22,24,22,24l2.8,3.6c0,0,0.5,0.7,0.5,1.1c0,0.7-0.6,1.3-1.3,1.3
c-0.7,0-1-0.5-1-0.5L20,26l-3.1,3.5c0,0-0.3,0.5-1,0.5c-0.7,0-1.3-0.6-1.3-1.3c0-0.5,0.5-1.1,0.5-1.1L18,24c0,0-2.5-1.1-3.3-1.5
C14.4,22.3,14,22,14,21.3c0-0.7,0.6-1.3,1.3-1.3c0.7,0,2,1.3,4.7,1.3c2.7,0,4-1.3,4.7-1.3c0.7,0,1.3,0.6,1.3,1.3
C26,22,25.6,22.3,25.3,22.5z"/>
<path style="fill:#EE8208;" d="M35,3c1.1,0,2,0.9,2,2v30c0,1.1-0.9,2-2,2H5c-1.1,0-2-0.9-2-2V5c0-1.1,0.9-2,2-2H35 M35,0H5
C2.2,0,0,2.2,0,5v30c0,2.8,2.2,5,5,5h30c2.8,0,5-2.2,5-5V5C40,2.2,37.8,0,35,0L35,0z"/>
</svg>
