<svg xmlns="http://www.w3.org/2000/svg" width="40px" height="40px" viewBox="0 0 40 40">
<path style="fill:#4A76A8;" d="M27.8,23.4c1.7,1.6,2,2.3,2.1,2.4c0.7,1.2-0.8,1.2-0.8,1.2l-2.8,0c0,0-0.6,0.1-1.4-0.4
c-1-0.7-2-2.6-2.8-2.4c-0.8,0.2-0.8,1.9-0.8,1.9s0,0.4-0.2,0.5C21,27,20.6,27,20.6,27h-1.3c0,0-2.8,0.2-5.2-2.4
c-2.7-2.8-5-8.3-5-8.3S9,16,9.2,15.9c0.2-0.2,0.6-0.2,0.6-0.2l3,0c0,0,0.3,0,0.5,0.2c0.2,0.1,0.3,0.4,0.3,0.4s0.5,1.2,1.1,2.3
c1.2,2.2,1.8,2.6,2.3,2.4c0.6-0.3,0.4-3.1,0.4-3.1s0-1-0.3-1.4c-0.2-0.3-0.7-0.4-0.9-0.5c-0.2,0,0.1-0.4,0.5-0.6
c0.5-0.3,1.5-0.3,2.6-0.3c0.9,0,1.1,0.1,1.5,0.1c1,0.2,0.7,1.2,0.7,3.5c0,0.7-0.1,1.8,0.4,2.1c0.2,0.1,0.8,0,2.2-2.4
c0.7-1.1,1.2-2.5,1.2-2.5s0.1-0.2,0.3-0.3c0.2-0.1,0.4-0.1,0.4-0.1l3.2,0c0,0,0.9-0.1,1.1,0.3c0.2,0.5-0.4,1.5-1.6,3.2
C26.3,22,26.1,21.7,27.8,23.4z"/>
<path style="fill:#4A76A8;" d="M35,3c1.1,0,2,0.9,2,2v30c0,1.1-0.9,2-2,2H5c-1.1,0-2-0.9-2-2V5c0-1.1,0.9-2,2-2H35 M35,0H5
C2.2,0,0,2.2,0,5v30c0,2.8,2.2,5,5,5h30c2.8,0,5-2.2,5-5V5C40,2.2,37.8,0,35,0L35,0z"/>
</svg>
