<svg xmlns="http://www.w3.org/2000/svg" width="40px" height="40px" viewBox="0 0 40 40">
<path style="fill:#EB443E;" d="M29.7,15.3c0-0.1,0-0.2-0.1-0.3v-0.1c-0.3-0.8-0.9-1.3-1.8-1.3h0.2c0,0-3.4-0.5-7.9-0.5
c-4.5,0-7.9,0.5-7.9,0.5h0.2c-0.9,0-1.6,0.5-1.8,1.3V15c0,0.1,0,0.2-0.1,0.3C10.3,16.1,10,17.9,10,20c0,2.1,0.3,3.9,0.3,4.7
c0,0.1,0,0.2,0.1,0.3v0.1c0.3,0.8,0.9,1.3,1.8,1.3h-0.2c0,0,3.4,0.5,7.9,0.5c4.5,0,7.9-0.5,7.9-0.5h-0.2c0.9,0,1.6-0.5,1.8-1.3V25
c0-0.1,0-0.2,0.1-0.3c0.1-0.9,0.3-2.7,0.3-4.7C30,17.9,29.8,16.1,29.7,15.3z M22.9,20.4l-4.1,2.9c-0.1,0.1-0.2,0.1-0.3,0.1
c-0.1,0-0.2,0-0.3-0.1c-0.2-0.1-0.3-0.3-0.3-0.4v-5.9c0-0.2,0.1-0.3,0.3-0.4c0.2-0.1,0.3-0.1,0.5,0l4.1,2.9c0.1,0.1,0.2,0.3,0.2,0.4
C23.2,20.2,23.1,20.3,22.9,20.4z"/>
<path style="fill:#EB443E;" d="M35,3c1.1,0,2,0.9,2,2v30c0,1.1-0.9,2-2,2H5c-1.1,0-2-0.9-2-2V5c0-1.1,0.9-2,2-2H35 M35,0H5
C2.2,0,0,2.2,0,5v30c0,2.8,2.2,5,5,5h30c2.8,0,5-2.2,5-5V5C40,2.2,37.8,0,35,0L35,0z"/>
</svg>
